<svg xmlns="http://www.w3.org/2000/svg" viewBox="0 0 128 128" role="img" aria-label="Task Ring Royal Atelier">
  <defs>
    <linearGradient id="pearl" x1="16" y1="10" x2="112" y2="118" gradientUnits="userSpaceOnUse">
      <stop offset="0" stop-color="#fffdf8"/>
      <stop offset="0.48" stop-color="#f7edff"/>
      <stop offset="1" stop-color="#ffe9b6"/>
    </linearGradient>
    <linearGradient id="royal" x1="34" y1="22" x2="94" y2="106" gradientUnits="userSpaceOnUse">
      <stop offset="0" stop-color="#6f7eea"/>
      <stop offset="0.55" stop-color="#2f56c8"/>
      <stop offset="1" stop-color="#c99a3d"/>
    </linearGradient>
    <linearGradient id="gold" x1="26" y1="26" x2="102" y2="106" gradientUnits="userSpaceOnUse">
      <stop offset="0" stop-color="#fff1be"/>
      <stop offset="0.45" stop-color="#d7a54c"/>
      <stop offset="1" stop-color="#8f641f"/>
    </linearGradient>
    <filter id="shadow" x="-40%" y="-40%" width="180%" height="180%">
      <feDropShadow dx="0" dy="8" stdDeviation="8" flood-color="#40345f" flood-opacity="0.20"/>
      <feDropShadow dx="0" dy="0" stdDeviation="4" flood-color="#fff5cc" flood-opacity="0.70"/>
    </filter>
  </defs>
  <rect x="7" y="7" width="114" height="114" rx="28" fill="url(#pearl)"/>
  <rect x="9" y="9" width="110" height="110" rx="26" fill="none" stroke="#c99a3d" stroke-opacity=".55" stroke-width="3"/>
  <path d="M27 74c10 23 39 32 63 17 18-12 24-36 11-53" fill="none" stroke="url(#gold)" stroke-width="8" stroke-linecap="round" opacity=".88"/>
  <path d="M35 78c11 13 31 17 47 7 14-8 20-25 13-40" fill="none" stroke="#fffdf8" stroke-width="3.5" stroke-linecap="round" opacity=".82"/>
  <g filter="url(#shadow)">
    <path d="M66 20l9 20 22-5-11 20 18 14-23 4-2 23-15-17-20 12 5-23-20-10 21-9z" fill="url(#royal)"/>
    <path d="M66 20l9 20 22-5-31 44-22 12 5-23-20-10 21-9z" fill="#ffffff" opacity=".18"/>
    <path d="M41 38l10 6 13-18 13 18 10-6-3 19H44z" fill="url(#gold)"/>
    <circle cx="41" cy="38" r="5" fill="#fff3c4"/>
    <circle cx="64" cy="26" r="5" fill="#fff3c4"/>
    <circle cx="87" cy="38" r="5" fill="#fff3c4"/>
  </g>
  <path d="M31 29h8M35 25v8M96 89h7M99.5 85.5v7" stroke="#c99a3d" stroke-width="4" stroke-linecap="round" opacity=".72"/>
</svg>