<svg xmlns="http://www.w3.org/2000/svg" viewBox="0 0 128 128">
  <defs>
    <linearGradient id="bgA" x1="12" y1="8" x2="116" y2="120" gradientUnits="userSpaceOnUse">
      <stop offset="0" stop-color="#15306f"/>
      <stop offset="0.30" stop-color="#20b8ef"/>
      <stop offset="0.64" stop-color="#6e79ff"/>
      <stop offset="1" stop-color="#d768ef"/>
    </linearGradient>
    <radialGradient id="bgGloss" cx="32" cy="22" r="92" gradientUnits="userSpaceOnUse">
      <stop offset="0" stop-color="#ffffff" stop-opacity="0.96"/>
      <stop offset="0.22" stop-color="#ffffff" stop-opacity="0.24"/>
      <stop offset="1" stop-color="#ffffff" stop-opacity="0"/>
    </radialGradient>
    <linearGradient id="trail" x1="18" y1="84" x2="108" y2="52" gradientUnits="userSpaceOnUse">
      <stop offset="0" stop-color="#86efff" stop-opacity="0.16"/>
      <stop offset="0.45" stop-color="#ffffff" stop-opacity="0.62"/>
      <stop offset="1" stop-color="#e4c8ff" stop-opacity="0.14"/>
    </linearGradient>
    <linearGradient id="boltMain" x1="38" y1="14" x2="82" y2="109" gradientUnits="userSpaceOnUse">
      <stop offset="0" stop-color="#ffffff"/>
      <stop offset="0.28" stop-color="#f4feff"/>
      <stop offset="0.58" stop-color="#c9f4ff"/>
      <stop offset="1" stop-color="#a6b0ff"/>
    </linearGradient>
    <linearGradient id="boltLeft" x1="30" y1="24" x2="62" y2="93" gradientUnits="userSpaceOnUse">
      <stop offset="0" stop-color="#92ecff" stop-opacity="0.92"/>
      <stop offset="1" stop-color="#6dc8ff" stop-opacity="0.26"/>
    </linearGradient>
    <linearGradient id="boltRight" x1="66" y1="18" x2="92" y2="86" gradientUnits="userSpaceOnUse">
      <stop offset="0" stop-color="#ffffff" stop-opacity="0.88"/>
      <stop offset="1" stop-color="#d1c7ff" stop-opacity="0.30"/>
    </linearGradient>
    <filter id="glow" x="-40%" y="-40%" width="180%" height="180%">
      <feDropShadow dx="0" dy="0" stdDeviation="8" flood-color="#baf5ff" flood-opacity="0.55"/>
      <feDropShadow dx="0" dy="8" stdDeviation="8" flood-color="#17286f" flood-opacity="0.30"/>
    </filter>
    <clipPath id="boltClip">
      <path d="M78 14L42 62H62L50 114L92 52H70L78 14Z"/>
    </clipPath>
  </defs>
  <rect width="128" height="128" rx="30" fill="url(#bgA)"/>
  <rect width="128" height="128" rx="30" fill="url(#bgGloss)"/>
  <path d="M18 88C34 101 72 101 108 58" fill="none" stroke="url(#trail)" stroke-width="7" stroke-linecap="round" opacity="0.82"/>
  <path d="M28 72C48 51 72 42 101 36" fill="none" stroke="#d9fcff" stroke-width="4" stroke-linecap="round" opacity="0.18"/>
  <g filter="url(#glow)">
    <path d="M78 14L42 62H62L50 114L92 52H70L78 14Z" fill="url(#boltMain)"/>
    <g clip-path="url(#boltClip)">
      <path d="M42 62L78 14L66 64L50 114Z" fill="url(#boltLeft)"/>
      <path d="M78 14L92 52L70 52L66 64Z" fill="url(#boltRight)"/>
      <path d="M62 62L92 52L50 114Z" fill="#b6beff" opacity="0.52"/>
      <path d="M52 44L74 20L68 48L60 62Z" fill="#ffffff" opacity="0.82"/>
      <path d="M57 65L73 54L61 88L52 104Z" fill="#ffffff" opacity="0.34"/>
      <path d="M70 52L82 52L66 76Z" fill="#ffffff" opacity="0.56"/>
      <path d="M74 18L57 63" stroke="#ffffff" stroke-width="2" opacity="0.42"/>
      <path d="M61 63L85 52" stroke="#dffaff" stroke-width="1.8" opacity="0.44"/>
      <path d="M60 64L53 105" stroke="#dbf4ff" stroke-width="1.7" opacity="0.40"/>
    </g>
  </g>
  <path d="M26 98L41 80L46 99L33 108Z" fill="#ffffff" opacity="0.10"/>
  <path d="M86 36L101 56L89 80L74 60Z" fill="#ffffff" opacity="0.12"/>
  <path d="M97 18V27M97 39V48M89 33H97M97 33H105" stroke="#ffffff" stroke-width="4.6" stroke-linecap="round" opacity="0.98"/>
  <circle cx="97" cy="33" r="4" fill="#ffffff" opacity="0.98"/>
</svg>